# xmcd CD database file
#
# Track frame offsets:
#	150
#	15092
#	35785
#	52254
#	67473
#
# Disc length: 1119 seconds
#
# Revision: 0
# Processed by: cddbd v1.4PL0 Copyright (c) Steve Scherf et al.
# Submitted via: CDex 1.50Beta7
#
DISCID=46045d05
DTITLE=Stacey Earle - Is it Enough
DYEAR=2000
DGENRE=Country
TTITLE0=Is it enough (I luuvv you)
TTITLE1=Next door down
TTITLE2=Makes me happy
TTITLE3=Dancin' with them that brung me
TTITLE4=Must be love
EXTD=YEAR: 2000
EXTT0=
EXTT1=
EXTT2=
EXTT3=
EXTT4=
PLAYORDER=
